<svg xmlns="http://www.w3.org/2000/svg" width="250" height="250" viewBox="0 0 182 104" fill="none">
<path d="M5.77014 101.117V2.88278H0V101.117H5.77014ZM179.115 98.2345H2.88507V104H179.115V98.2345ZM176.23 2.88278V101.117H182V2.88278H176.23ZM2.88507 5.76555H179.115V0H2.88507V5.76555ZM2.88507 101.117H0V104H2.88507V101.117ZM179.115 101.117V104H182V101.117H179.115ZM179.115 2.88278H182V0H179.115V2.88278ZM2.88507 2.88278V0H0V2.88278H2.88507Z" fill="#333333"/>
<path d="M137.55 23.0636H155.659L144.976 44.1383L153.896 66.8177H135.643L129.181 46.8481V66.8177H111.427V23.1162H129.181V40.7703L137.551 23.0636H137.55ZM68.7338 66.8177V23.0636H108.768V66.8177H91.0149V32.9434H86.4879V66.8181H68.7343L68.7338 66.8177ZM66.0754 48.6239V57.3589C66.0754 59.0429 65.8695 60.4811 65.4569 61.6739C65.0534 62.8579 64.4085 63.827 63.5222 64.5811C62.6359 65.3352 61.4911 65.892 60.0874 66.2517C58.6836 66.6115 56.9858 66.7909 54.9944 66.7909H36.7802C33.0868 66.7909 30.3887 66.0368 28.6863 64.5281C26.9931 63.0193 26.1465 60.6296 26.1465 57.3585L26.1599 32.8899C26.1511 30.9868 26.3394 29.3734 26.7258 28.0487C27.1117 26.7157 27.7215 25.6369 28.5552 24.8121C29.3888 23.9879 30.481 23.3869 31.8322 23.0101C33.1833 22.6328 34.8285 22.4446 36.7672 22.4446H54.9815C57.0523 22.4446 58.8156 22.6328 60.272 23.0101C61.7284 23.3874 62.8469 23.9704 63.6279 24.7596C65.2597 26.3384 66.08 29.0482 66.0888 32.8895L66.0754 38.6513H48.3352V35.4807C48.3352 34.3318 48.1552 33.5163 47.7956 33.0338C47.4448 32.5426 46.8742 32.2972 46.0849 32.2972C45.2955 32.2972 44.7425 32.5514 44.4004 33.0601C44.0584 33.5601 43.8871 34.3668 43.8871 35.4807L43.9001 53.6874C43.8913 54.8013 44.0579 55.6127 44.4 56.1214C44.7425 56.6214 45.3038 56.8714 46.0844 56.8714C47.5846 56.8714 48.3394 55.8101 48.3481 53.6879L48.3352 48.6234H66.0754V48.6239Z" fill="#333333"/>
<path d="M153.077 83.1905C152.548 83.1905 152.283 82.9903 152.283 82.5895C152.283 82.1887 152.548 81.9885 153.077 81.9885H153.269V80.6901C152.908 80.9945 152.484 81.1467 151.995 81.1467C151.738 81.1467 151.51 81.1384 151.309 81.1228C151.117 81.0988 150.908 81.0545 150.684 80.9904C150.467 80.9263 150.287 80.8382 150.143 80.7261C150.006 80.6057 149.89 80.4456 149.794 80.2455C149.706 80.0453 149.662 79.8045 149.662 79.5241V77.3844C149.245 77.3442 149.036 77.1441 149.036 76.7834C149.036 76.3825 149.301 76.1824 149.83 76.1824H151.056C151.585 76.1824 151.85 76.3825 151.85 76.7834C151.85 77.1842 151.585 77.3844 151.056 77.3844H150.864V79.4881C151.008 79.7925 151.409 79.9447 152.066 79.9447C152.619 79.9447 153.02 79.7925 153.269 79.4881V77.3844H153.076C152.547 77.3844 152.283 77.1842 152.283 76.7834C152.283 76.3825 152.547 76.1824 153.076 76.1824H154.303C154.559 76.1824 154.756 76.2266 154.892 76.3147C155.028 76.395 155.096 76.5514 155.096 76.7834C155.096 77.1441 154.888 77.3442 154.471 77.3844V81.988H154.543C155.072 81.988 155.336 82.1882 155.336 82.589C155.336 82.9899 155.072 83.19 154.543 83.19H153.076L153.077 83.1905ZM146.083 83.1905C145.554 83.1905 145.289 82.9903 145.289 82.5895C145.289 82.1887 145.554 81.9885 146.083 81.9885H146.263V79.2718L143.69 81.4954V81.988H143.87C144.399 81.988 144.664 82.1882 144.664 82.589C144.664 82.9899 144.399 83.19 143.87 83.19H142.415C141.886 83.19 141.622 82.9899 141.622 82.589C141.622 82.3566 141.69 82.2007 141.826 82.1204C141.963 82.0323 142.159 81.988 142.415 81.988H142.487V77.3844C142.071 77.3442 141.862 77.1441 141.862 76.7834C141.862 76.5509 141.93 76.395 142.066 76.3147C142.203 76.2266 142.399 76.1824 142.655 76.1824H143.87C144.399 76.1824 144.663 76.3825 144.663 76.7834C144.663 77.1842 144.399 77.3844 143.87 77.3844H143.689V80.1131L146.263 77.8894V77.3844H146.082C145.553 77.3844 145.289 77.1842 145.289 76.7834C145.289 76.5509 145.357 76.395 145.493 76.3147C145.63 76.2266 145.826 76.1824 146.082 76.1824H147.297C147.826 76.1824 148.09 76.3825 148.09 76.7834C148.09 77.1441 147.882 77.3442 147.465 77.3844V81.988H147.537C148.066 81.988 148.33 82.1882 148.33 82.589C148.33 82.9899 148.066 83.19 147.537 83.19H146.082L146.083 83.1905ZM138.872 83.1905C138.343 83.1905 138.079 82.9903 138.079 82.5895C138.079 82.1887 138.343 81.9885 138.872 81.9885H139.053V77.3848H136.479V81.9885H136.66C137.189 81.9885 137.453 82.1887 137.453 82.5895C137.453 82.9903 137.189 83.1905 136.66 83.1905H135.205C134.676 83.1905 134.411 82.9903 134.411 82.5895C134.411 82.357 134.48 82.2011 134.616 82.1209C134.752 82.0328 134.949 81.9885 135.205 81.9885H135.277V77.3848C134.86 77.3447 134.652 77.1445 134.652 76.7838C134.652 76.5514 134.72 76.3955 134.856 76.3152C134.992 76.2271 135.189 76.1828 135.445 76.1828H140.087C140.616 76.1828 140.88 76.383 140.88 76.7838C140.88 77.1445 140.672 77.3447 140.255 77.3848V81.9885H140.327C140.856 81.9885 141.12 82.1887 141.12 82.5895C141.12 82.9903 140.856 83.1905 140.327 83.1905H138.872H138.872ZM129.281 77.3848V79.5845H130.7C131.117 79.5845 131.441 79.4886 131.674 79.2962C131.915 79.096 132.035 78.8276 132.035 78.4909C132.035 78.1542 131.915 77.8779 131.674 77.6856C131.441 77.4854 131.117 77.3848 130.7 77.3848H129.281ZM133.31 78.4545C133.31 78.6708 133.286 78.8793 133.238 79.0794C133.19 79.2796 133.097 79.4881 132.961 79.7044C132.824 79.9129 132.652 80.0969 132.444 80.2575C132.244 80.4097 131.971 80.5379 131.627 80.6421C131.29 80.7381 130.901 80.7865 130.46 80.7865H129.282V81.9885H130.472C131.001 81.9885 131.266 82.1887 131.266 82.5895C131.266 82.9903 131.001 83.1905 130.472 83.1905H127.899C127.37 83.1905 127.105 82.9903 127.105 82.5895C127.105 82.1887 127.37 81.9885 127.899 81.9885H128.079V77.3848H127.899C127.37 77.3848 127.105 77.1846 127.105 76.7838C127.105 76.5514 127.173 76.3955 127.31 76.3152C127.446 76.2271 127.642 76.1828 127.899 76.1828H130.701C131.462 76.1828 132.087 76.3955 132.577 76.8198C133.065 77.2446 133.31 77.7893 133.31 78.4545H133.31ZM124.452 83.1905C123.923 83.1905 123.658 82.9903 123.658 82.5895C123.658 82.1887 123.923 81.9885 124.452 81.9885H124.632V79.2718L122.059 81.4954V81.988H122.239C122.768 81.988 123.033 82.1882 123.033 82.589C123.033 82.9899 122.768 83.19 122.239 83.19H120.784C120.255 83.19 119.991 82.9899 119.991 82.589C119.991 82.3566 120.059 82.2007 120.195 82.1204C120.332 82.0323 120.528 81.988 120.784 81.988H120.856V77.3844C120.439 77.3442 120.231 77.1441 120.231 76.7834C120.231 76.5509 120.299 76.395 120.435 76.3147C120.572 76.2266 120.768 76.1824 121.024 76.1824H122.239C122.768 76.1824 123.032 76.3825 123.032 76.7834C123.032 77.1842 122.768 77.3844 122.239 77.3844H122.058V80.1131L124.632 77.8894V77.3844H124.451C123.922 77.3844 123.658 77.1842 123.658 76.7834C123.658 76.5509 123.726 76.395 123.862 76.3147C123.999 76.2266 124.195 76.1824 124.451 76.1824H125.666C126.195 76.1824 126.459 76.3825 126.459 76.7834C126.459 77.1441 126.251 77.3442 125.834 77.3844V81.988H125.906C126.435 81.988 126.699 82.1882 126.699 82.589C126.699 82.9899 126.435 83.19 125.906 83.19H124.451L124.452 83.1905ZM118.877 81.9885C119.141 81.9885 119.338 82.0328 119.466 82.1209C119.602 82.2011 119.67 82.3575 119.67 82.5895C119.67 82.9903 119.406 83.1905 118.877 83.1905H117.554C117.273 82.3091 116.856 81.5319 116.303 80.8585C115.758 80.1855 115.245 79.8488 114.764 79.8488V81.9885H115.197C115.726 81.9885 115.991 82.1887 115.991 82.5895C115.991 82.9903 115.726 83.1905 115.197 83.1905H113.393C112.864 83.1905 112.6 82.9903 112.6 82.5895C112.6 82.357 112.668 82.2011 112.804 82.1209C112.941 82.0328 113.137 81.9885 113.393 81.9885H113.562V77.3848H113.393C113.137 77.3848 112.941 77.3447 112.804 77.2644C112.668 77.1763 112.6 77.0158 112.6 76.7838C112.6 76.5518 112.668 76.383 112.804 76.3032C112.941 76.223 113.137 76.1828 113.393 76.1828H115.197C115.726 76.1828 115.991 76.383 115.991 76.7838C115.991 77.1846 115.726 77.3848 115.197 77.3848H114.764V79.1758L116.905 77.3369C116.664 77.2409 116.544 77.0606 116.544 76.7958C116.544 76.3872 116.809 76.1828 117.338 76.1828H118.54C118.797 76.1828 118.993 76.2271 119.129 76.3152C119.266 76.3955 119.334 76.5518 119.334 76.7838C119.334 77.1846 119.085 77.3848 118.588 77.3848L116.472 79.2238C116.833 79.4161 117.189 79.7565 117.542 80.2455C117.903 80.7261 118.219 81.3073 118.492 81.9885H118.877ZM102.075 82.1569C102.452 82.1569 102.773 82.1126 103.037 82.0245C103.31 81.9285 103.502 81.8285 103.614 81.7242C103.726 81.6121 103.838 81.5116 103.951 81.4235C104.071 81.3275 104.183 81.2791 104.287 81.2791C104.448 81.2791 104.588 81.3391 104.708 81.4595C104.828 81.5798 104.889 81.7201 104.889 81.8801C104.889 82.2247 104.612 82.5572 104.059 82.8778C103.514 83.1983 102.84 83.3584 102.039 83.3584C101.021 83.3584 100.175 83.0618 99.5016 82.4691C98.8365 81.8681 98.5036 81.1108 98.5036 80.1975V79.4042C98.5036 78.4425 98.8162 77.6371 99.4416 76.9882C100.067 76.3392 100.844 76.0145 101.775 76.0145C102.336 76.0145 102.905 76.1505 103.482 76.4231L103.602 76.4711C103.739 76.2788 103.907 76.1828 104.107 76.1828C104.34 76.1828 104.496 76.2511 104.576 76.3872C104.664 76.5232 104.709 76.7197 104.709 76.9762V77.9858C104.709 78.5149 104.508 78.7792 104.107 78.7792C103.963 78.7792 103.843 78.739 103.746 78.6588C103.658 78.5785 103.602 78.5066 103.578 78.4425C103.562 78.3705 103.542 78.2704 103.518 78.1417C103.47 77.9014 103.321 77.7091 103.073 77.5647C102.832 77.4125 102.608 77.3161 102.399 77.2764C102.191 77.2363 101.999 77.2165 101.822 77.2165C101.213 77.2165 100.708 77.425 100.307 77.8415C99.9065 78.2501 99.7061 78.7709 99.7061 79.4042V80.1735C99.7061 80.7745 99.9185 81.2551 100.344 81.6158C100.777 81.9765 101.354 82.1569 102.075 82.1569ZM94.8648 82.1569C95.2414 82.1569 95.5622 82.1126 95.8268 82.0245C96.0996 81.9285 96.2916 81.8285 96.4038 81.7242C96.5159 81.6121 96.6281 81.5116 96.7403 81.4235C96.8603 81.3275 96.9725 81.2791 97.0768 81.2791C97.237 81.2791 97.3773 81.3391 97.4978 81.4595C97.6178 81.5798 97.6783 81.7201 97.6783 81.8801C97.6783 82.2247 97.4018 82.5572 96.8488 82.8778C96.3036 83.1983 95.6301 83.3584 94.8288 83.3584C93.8104 83.3584 92.9648 83.0618 92.2913 82.4691C91.6261 81.8681 91.2933 81.1108 91.2933 80.1975V79.4042C91.2933 78.4425 91.6058 77.6371 92.2313 76.9882C92.8568 76.3392 93.6341 76.0145 94.5643 76.0145C95.1256 76.0145 95.6947 76.1505 96.2718 76.4231L96.3918 76.4711C96.5279 76.2788 96.6964 76.1828 96.8968 76.1828C97.129 76.1828 97.2854 76.2511 97.3658 76.3872C97.4539 76.5232 97.4982 76.7197 97.4982 76.9762V77.9858C97.4982 78.5149 97.2979 78.7792 96.8968 78.7792C96.7523 78.7792 96.6323 78.739 96.5358 78.6588C96.4476 78.5785 96.3913 78.5066 96.3673 78.4425C96.3511 78.3705 96.3313 78.2704 96.3073 78.1417C96.2593 77.9014 96.1111 77.7091 95.8623 77.5647C95.6218 77.4125 95.3975 77.3161 95.1888 77.2764C94.9802 77.2368 94.7881 77.2165 94.6118 77.2165C94.0025 77.2165 93.4975 77.425 93.0968 77.8415C92.6961 78.2501 92.4953 78.7709 92.4953 79.4042V80.1735C92.4953 80.7745 92.7076 81.2551 93.1328 81.6158C93.5658 81.9765 94.1428 82.1569 94.8643 82.1569H94.8648ZM89.0974 81.3635C89.0974 80.8266 89.2977 80.5582 89.6989 80.5582C90.1 80.5582 90.3003 80.8266 90.3003 81.3635V83.1905H84.6364C84.1074 83.1905 83.8429 82.9903 83.8429 82.5895C83.8429 82.1887 84.1074 81.9885 84.6364 81.9885H84.8169V77.3848H84.6364C84.1074 77.3848 83.8429 77.1846 83.8429 76.7838C83.8429 76.5514 83.9107 76.3955 84.0474 76.3152C84.1835 76.2271 84.3797 76.1828 84.6364 76.1828H90.0358V77.9858C90.0358 78.5227 89.8355 78.7912 89.4344 78.7912C89.0332 78.7912 88.8329 78.5227 88.8329 77.9858V77.3848H86.0189V79.0799H87.0409V78.996C87.0409 78.4591 87.2371 78.1906 87.6299 78.1906C88.0227 78.1906 88.2314 78.4591 88.2314 78.996V80.3543C88.2314 80.8834 88.0347 81.1477 87.6424 81.1477C87.25 81.1477 87.0409 80.8834 87.0409 80.3543V80.2704H86.0189V81.9894H89.0974V81.3644V81.3635ZM78.8085 77.3848V79.5845H80.2275C80.6444 79.5845 80.9693 79.4886 81.2015 79.2962C81.442 79.096 81.562 78.8276 81.562 78.4909C81.562 78.1542 81.442 77.8779 81.2015 77.6856C80.9693 77.4854 80.6444 77.3848 80.2275 77.3848H78.8085ZM82.837 78.4545C82.837 78.6708 82.813 78.8793 82.765 79.0794C82.717 79.2796 82.6247 79.4881 82.4885 79.7044C82.3523 79.9129 82.1801 80.0969 81.9715 80.2575C81.7711 80.4097 81.4988 80.5379 81.154 80.6421C80.8175 80.7381 80.4283 80.7865 79.9875 80.7865H78.809V81.9885H79.9995C80.5285 81.9885 80.793 82.1887 80.793 82.5895C80.793 82.9903 80.5285 83.1905 79.9995 83.1905H77.426C76.897 83.1905 76.6325 82.9903 76.6325 82.5895C76.6325 82.1887 76.897 81.9885 77.426 81.9885H77.6065V77.3848H77.426C76.897 77.3848 76.6325 77.1846 76.6325 76.7838C76.6325 76.5514 76.7008 76.3955 76.837 76.3152C76.9736 76.2271 77.1698 76.1828 77.426 76.1828H80.228C80.9896 76.1828 81.6151 76.3955 82.104 76.8198C82.5933 77.2446 82.8375 77.7893 82.8375 78.4545H82.837ZM73.9791 83.1905C73.4501 83.1905 73.1856 82.9903 73.1856 82.5895C73.1856 82.1887 73.4501 81.9885 73.9791 81.9885H74.1596V77.3848H71.5862V81.9885H71.7666C72.2956 81.9885 72.5602 82.1887 72.5602 82.5895C72.5602 82.9903 72.2956 83.1905 71.7666 83.1905H70.3116C69.7826 83.1905 69.5181 82.9903 69.5181 82.5895C69.5181 82.357 69.5865 82.2011 69.7226 82.1209C69.8588 82.0328 70.0555 81.9885 70.3116 81.9885H70.3837V77.3848C69.9668 77.3447 69.7582 77.1445 69.7582 76.7838C69.7582 76.5514 69.8265 76.3955 69.9627 76.3152C70.0988 76.2271 70.2955 76.1828 70.5517 76.1828H75.1932C75.7222 76.1828 75.9867 76.383 75.9867 76.7838C75.9867 77.1445 75.7785 77.3447 75.3612 77.3848V81.9885H75.4332C75.9622 81.9885 76.2267 82.1887 76.2267 82.5895C76.2267 82.9903 75.9622 83.1905 75.4332 83.1905H73.9782H73.9791ZM59.5584 83.1905C59.0294 83.1905 58.7649 82.9903 58.7649 82.5895C58.7649 82.1887 59.0294 81.9885 59.5584 81.9885H59.7389V79.2718L57.1654 81.4954V81.988H57.3459C57.8749 81.988 58.1394 82.1882 58.1394 82.589C58.1394 82.9899 57.8749 83.19 57.3459 83.19H55.8909C55.3619 83.19 55.0974 82.9899 55.0974 82.589C55.0974 82.3566 55.1657 82.2007 55.3019 82.1204C55.4385 82.0323 55.6347 81.988 55.8909 81.988H55.9629V77.3844C55.5461 77.3442 55.3374 77.1441 55.3374 76.7834C55.3374 76.5509 55.4057 76.395 55.5419 76.3147C55.6786 76.2266 55.8747 76.1824 56.1309 76.1824H57.3454C57.8744 76.1824 58.1389 76.3825 58.1389 76.7834C58.1389 77.1842 57.8744 77.3844 57.3454 77.3844H57.1649V80.1131L59.7384 77.8894V77.3844H59.5579C59.0289 77.3844 58.7644 77.1842 58.7644 76.7834C58.7644 76.5509 58.8327 76.395 58.9689 76.3147C59.1056 76.2266 59.3017 76.1824 59.5579 76.1824H60.7724C61.3014 76.1824 61.5659 76.3825 61.5659 76.7834C61.5659 77.1441 61.3578 77.3442 60.9405 77.3844V81.988H61.0125C61.5415 81.988 61.806 82.1882 61.806 82.589C61.806 82.9899 61.5415 83.19 61.0125 83.19H59.5575L59.5584 83.1905ZM56.6604 73.9227C56.7804 73.9227 56.8691 73.9509 56.9249 74.0067C56.9812 74.0546 57.0292 74.1547 57.0694 74.3074C57.1096 74.4596 57.254 74.604 57.5024 74.7401C57.759 74.8761 58.0434 74.9444 58.3564 74.9444C58.6693 74.9444 58.9495 74.8761 59.1983 74.7401C59.4472 74.604 59.5953 74.4596 59.6433 74.3074C59.6913 74.1474 59.7394 74.0431 59.7878 73.9947C59.8441 73.9467 59.9323 73.9227 60.0523 73.9227C60.3251 73.9227 60.4613 74.0551 60.4613 74.3194C60.4613 74.6879 60.2448 75.0205 59.8118 75.3171C59.3871 75.6137 58.902 75.7617 58.3568 75.7617C57.8117 75.7617 57.3228 75.6137 56.8898 75.3171C56.4651 75.0126 56.2523 74.6759 56.2523 74.3074C56.2523 74.051 56.389 73.9227 56.6613 73.9227H56.6604ZM51.242 77.2165C50.6567 77.2165 50.1517 77.4609 49.727 77.9499C49.3023 78.4305 49.0895 79.0075 49.0895 79.6809C49.0895 80.3543 49.2977 80.947 49.715 81.4359C50.1397 81.9166 50.6488 82.1573 51.242 82.1573C51.8352 82.1573 52.3323 81.917 52.757 81.4359C53.1817 80.9553 53.3945 80.382 53.3945 79.7169C53.3945 79.0518 53.1822 78.4388 52.757 77.9499C52.3402 77.4609 51.8352 77.2165 51.242 77.2165ZM51.242 76.0145C51.4183 76.0145 51.627 76.0426 51.8675 76.0984C52.108 76.1464 52.3928 76.2548 52.7215 76.4231C53.058 76.5915 53.359 76.8037 53.6235 77.0601C53.8963 77.3166 54.1248 77.6814 54.309 78.1537C54.5014 78.6187 54.5975 79.1472 54.5975 79.7404C54.5975 80.7261 54.2646 81.5757 53.5995 82.2888C52.9421 83.0019 52.1565 83.3584 51.2425 83.3584C50.3285 83.3584 49.5188 83.0019 48.8615 82.2888C48.212 81.5674 47.8875 80.6979 47.8875 79.6804C47.8875 78.6629 48.2161 77.8092 48.8735 77.0961C49.5308 76.3747 50.3206 76.0145 51.2425 76.0145H51.242ZM42.7571 77.3848V79.5845H44.1761C44.593 79.5845 44.9175 79.4886 45.1501 79.2962C45.3906 79.096 45.5111 78.8276 45.5111 78.4909C45.5111 78.1542 45.3906 77.8779 45.1501 77.6856C44.9175 77.4854 44.593 77.3848 44.1761 77.3848H42.7571ZM46.7856 78.4545C46.7856 78.6708 46.7616 78.8793 46.7136 79.0794C46.6656 79.2796 46.5733 79.4881 46.4371 79.7044C46.3005 79.9129 46.1283 80.0969 45.9201 80.2575C45.7198 80.4097 45.4469 80.5379 45.1026 80.6421C44.7661 80.7381 44.3769 80.7865 43.9361 80.7865H42.7576V81.9885H43.9481C44.4771 81.9885 44.7416 82.1887 44.7416 82.5895C44.7416 82.9903 44.4771 83.1905 43.9481 83.1905H41.3746C40.8456 83.1905 40.5811 82.9903 40.5811 82.5895C40.5811 82.1887 40.8456 81.9885 41.3746 81.9885H41.5551V77.3848H41.3746C40.8456 77.3848 40.5811 77.1846 40.5811 76.7838C40.5811 76.5514 40.649 76.3955 40.7856 76.3152C40.9218 76.2271 41.1179 76.1828 41.3746 76.1828H44.1766C44.9382 76.1828 45.5633 76.3955 46.0526 76.8198C46.5414 77.2446 46.7861 77.7893 46.7861 78.4545H46.7856ZM38.2043 81.9885C38.7333 81.9885 38.9978 82.1887 38.9978 82.5895C38.9978 82.9903 38.7333 83.1905 38.2043 83.1905H35.4263C34.8973 83.1905 34.6328 82.9903 34.6328 82.5895C34.6328 82.357 34.7011 82.2011 34.8373 82.1209C34.9739 82.0328 35.1701 81.9885 35.4263 81.9885H36.2078V77.3848H34.9213V78.5029C34.9213 79.0319 34.7209 79.2962 34.3198 79.2962C33.9187 79.2962 33.7183 79.0319 33.7183 78.5029V76.1828H39.9233V78.5029C39.9233 78.7593 39.8794 78.9558 39.7908 79.0919C39.711 79.228 39.5545 79.2962 39.3218 79.2962C38.9211 79.2962 38.7203 79.0319 38.7203 78.5029V77.3848H37.4098V81.9885H38.2033H38.2043ZM29.9719 82.1569C30.3486 82.1569 30.6694 82.1126 30.9339 82.0245C31.2067 81.9285 31.3987 81.8285 31.5109 81.7242C31.6231 81.6121 31.7352 81.5116 31.8474 81.4235C31.9679 81.3275 32.0796 81.2791 32.1839 81.2791C32.3441 81.2791 32.4844 81.3391 32.6049 81.4595C32.7249 81.5798 32.7854 81.7201 32.7854 81.8801C32.7854 82.2247 32.5089 82.5572 31.9559 82.8778C31.4107 83.1983 30.7372 83.3584 29.9359 83.3584C28.9176 83.3584 28.0719 83.0618 27.3984 82.4691C26.7332 81.8681 26.4004 81.1108 26.4004 80.1975V79.4042C26.4004 78.4425 26.7129 77.6371 27.3384 76.9882C27.9639 76.3392 28.7412 76.0145 29.6714 76.0145C30.2327 76.0145 30.8019 76.1505 31.3789 76.4231L31.4989 76.4711C31.6351 76.2788 31.8036 76.1828 32.0039 76.1828C32.2361 76.1828 32.3926 76.2511 32.4729 76.3872C32.5611 76.5232 32.6054 76.7197 32.6054 76.9762V77.9858C32.6054 78.5149 32.405 78.7792 32.0039 78.7792C31.8594 78.7792 31.7394 78.739 31.6429 78.6588C31.5547 78.5785 31.4984 78.5066 31.4744 78.4425C31.4583 78.3705 31.4384 78.2704 31.4144 78.1417C31.3664 77.9014 31.2182 77.7091 30.9694 77.5647C30.7289 77.4125 30.5046 77.3161 30.2959 77.2764C30.0877 77.2363 29.8953 77.2165 29.7189 77.2165C29.1096 77.2165 28.6046 77.425 28.2039 77.8415C27.8032 78.2501 27.6024 78.7709 27.6024 79.4042V80.1735C27.6024 80.7745 27.8148 81.2551 28.2399 81.6158C28.6729 81.9765 29.2499 82.1569 29.9714 82.1569H29.9719Z" fill="#F34915"/>
</svg>